HIERARCHY
ROOT Hips
{
    OFFSET 0.000000 0.000000 0.000000
    CHANNELS 6 Xposition Yposition Zposition Zrotation Xrotation Yrotation
        JOINT Chest
        {
            OFFSET -0.000000 29.391830 -0.000000
            CHANNELS 3 Zrotation Xrotation Yrotation
            JOINT Neck
            {
                OFFSET -0.000000 21.536943 0.000000
                CHANNELS 3 Zrotation Xrotation Yrotation
                JOINT Head
                {
                    OFFSET -0.000000 10.450000 0.000000
                    CHANNELS 3 Zrotation Xrotation Yrotation
                    End Site
                    {
                        OFFSET -0.000000 16.150003 0.000000
                    }
                }
            }
            JOINT LeftCollar
            {
                OFFSET -0.000000 21.536943 0.000000
                CHANNELS 3 Zrotation Xrotation Yrotation
                JOINT LeftShoulder
                {
                    OFFSET 19.500000 -0.000000 0.000000
                    CHANNELS 3 Zrotation Xrotation Yrotation
                    JOINT LeftElbow
                    {
                        OFFSET 20.632557 0.000000 0.000000
                        CHANNELS 3 Zrotation Xrotation Yrotation
                        JOINT LeftWrist
                        {
                            OFFSET 24.683100 0.000000 0.000000
                            CHANNELS 3 Zrotation Xrotation Yrotation
                            End Site
                            {
                                OFFSET 0.000000 -14.250000 0.000000
                            }
                        }
                    }
                }
            }
            JOINT RightCollar
            {
                OFFSET -0.000000 21.536943 0.000000
                CHANNELS 3 Zrotation Xrotation Yrotation
                JOINT RightShoulder
                {
                    OFFSET -19.500000 0.000000 0.000000
                    CHANNELS 3 Zrotation Xrotation Yrotation
                    JOINT RightElbow
                    {
                        OFFSET -20.632557 0.000000 0.000000
                        CHANNELS 3 Zrotation Xrotation Yrotation
                        JOINT RightWrist
                        {
                            OFFSET -24.683100 0.000000 0.000000
                            CHANNELS 3 Zrotation Xrotation Yrotation
                            End Site
                            {
                                OFFSET -0.000000 -14.250000 0.000000
                            }
                        }
                    }
                }
            }
        }
    JOINT LeftHip
    {
        OFFSET 11.400001 0.000000 0.000000
        CHANNELS 3 Zrotation Xrotation Yrotation
        JOINT LeftKnee
        {
            OFFSET -0.000000 -38.134491 0.000000
            CHANNELS 3 Zrotation Xrotation Yrotation
            JOINT LeftAnkle
            {
                OFFSET -0.000000 -39.452507 0.000000
                CHANNELS 3 Zrotation Xrotation Yrotation
                End Site
                {
                    OFFSET -0.000000 -4.750000 16.150003
                }
            }
        }
    }
    JOINT RightHip
    {
        OFFSET -11.400001 0.000000 0.000000
        CHANNELS 3 Zrotation Xrotation Yrotation
        JOINT RightKnee
        {
            OFFSET -0.000000 -38.134491 0.000000
            CHANNELS 3 Zrotation Xrotation Yrotation
            JOINT RightAnkle
            {
                OFFSET -0.000000 -39.452507 0.000000
                CHANNELS 3 Zrotation Xrotation Yrotation
                End Site
                {
                    OFFSET -0.000000 -4.750000 16.150003
                }
            }
        }
    }
}
MOTION
Frames:    5
Frame Time:    0.010000
-22.795071    82.950722    -14.139634    13.346675    -2.012262    -62.193542    -0.643065    3.393196    31.457800    -8.250074    -1.149161    -11.855589    -8.209359    5.670549    -11.364790    -17.585320    -1.010427    5.619699    -48.201668    27.454382    -17.954866    37.331440    -28.582302    -72.900475    118.880928    1.463483    63.778282    26.838701    4.607944    19.350235    -13.836733    38.712872    78.026939    -48.046146    -10.960196    25.575409    -97.407402    -1.357989    -77.641151    -8.072382    -40.650890    -9.166322    1.329271    37.008583    -16.801384    -8.062529    -0.567429    3.019885    -9.012766    -6.403108    -10.366081    31.402046    72.573402    -43.881699    16.424606    2.635929    19.240320    
-23.110918    83.102348    -14.301043    13.000635    -1.971315    -62.612373    -0.805856    3.413100    31.611952    -8.274366    -1.314261    -11.433197    -7.959151    6.182060    -10.906799    -17.487055    -0.866770    4.774573    -49.345966    25.119625    -15.798450    39.138824    -30.833158    -74.180344    119.505013    2.145463    66.091751    26.641445    4.632041    19.729008    -15.020227    38.700226    80.520813    -48.492313    -11.988982    27.747051    -98.079880    -4.077991    -74.785561    -7.427783    -40.144230    -8.639798    1.559943    36.851624    -17.029388    -8.235708    -0.545760    3.311091    -9.340124    -6.982340    -9.291517    31.202955    72.886208    -42.677395    15.080784    0.633729    18.504337    
-23.414650    83.254944    -14.476839    12.619888    -1.934890    -63.016293    -0.946577    3.456397    31.802206    -8.288765    -1.400332    -11.048264    -7.697260    6.669384    -10.496504    -17.372755    -0.735675    4.021885    -50.274551    22.910511    -13.970410    41.120140    -33.032646    -75.083527    120.099045    2.837353    67.713478    26.427919    4.668126    20.168259    -16.245232    38.415630    82.797920    -48.537437    -12.955235    29.961145    -98.570015    -6.107838    -71.055763    -6.793964    -39.587151    -8.080410    1.821919    36.653805    -17.247858    -8.387200    -0.505253    3.566004    -9.668440    -7.523968    -8.275409    30.495502    73.085022    -41.162575    13.899451    -1.439253    17.513920    
-23.706291    83.405838    -14.668364    12.215829    -1.903026    -63.385231    -1.068603    3.500086    32.023155    -8.278830    -1.378059    -10.702538    -7.435856    7.111631    -10.139066    -17.256981    -0.616094    3.338940    -51.012665    20.772728    -12.389476    43.192802    -35.127258    -75.698479    120.722755    3.504444    68.643150    26.178354    4.718746    20.644655    -17.541191    37.868034    84.902000    -48.234112    -13.818495    32.108330    -98.850662    -7.732060    -66.487137    -6.186947    -38.986805    -7.532220    2.092937    36.410152    -17.424084    -8.518626    -0.450370    3.775278    -10.001820    -8.018702    -7.372730    29.198589    73.157883    -39.339516    12.827088    -3.553920    16.311241    
-23.985395    83.552132    -14.876755    11.799356    -1.874006    -63.702637    -1.174928    3.525690    32.265800    -8.229110    -1.225760    -10.394221    -7.187456    7.488260    -9.834058    -17.153414    -0.505815    2.693861    -51.574158    18.664171    -10.980700    45.287613    -37.099770    -76.107910    121.376938    4.090387    68.932541    25.878025    4.764371    21.136553    -18.940289    37.095703    86.884956    -47.728447    -14.563808    34.040962    -98.847496    -9.210043    -61.189587    -5.615600    -38.353943    -7.028115    2.354331    36.119335    -17.537762    -8.633523    -0.386725    3.933492    -10.342875    -8.461394    -6.625329    27.280987    73.086411    -37.228355    11.808265    -5.680670    14.943749    
